Coordinates
version=1
nRows=20
nColumns=38
inDegrees=no

Units are S.I. units (second, meters, Newtons, ...)
If the header above contains a line with 'inDegrees', this indicates whether rotational values are in degrees (yes) or radians (no).

endheader
time	pelvis_tilt	pelvis_list	pelvis_rotation	pelvis_tx	pelvis_ty	pelvis_tz	hip_flexion_r	hip_adduction_r	hip_rotation_r	knee_angle_r	ankle_angle_r	subtalar_angle_r	mtp_angle_r	hip_flexion_l	hip_adduction_l	hip_rotation_l	knee_angle_l	ankle_angle_l	subtalar_angle_l	mtp_angle_l	lumbar_extension	lumbar_bending	lumbar_rotation	arm_flex_r	arm_add_r	arm_rot_r	elbow_flex_r	pro_sup_r	wrist_flex_r	wrist_dev_r	arm_flex_l	arm_add_l	arm_rot_l	elbow_flex_l	pro_sup_l	wrist_flex_l	wrist_dev_l
0	0.325609	1.32981	-1.7571	0.494203	1.97965	0.9257	-0.136867	-0.130548	-0.437694	0.349615	-0.112714	0	0	0.187261	0.217723	0.237511	1.4132	-0.0791175	0	0	-0.237699	0.0631745	0.221194	-0.33589	-0.571494	-0.271547	1.65372	0.80745	0	0	0.501851	-0.404006	0.643663	0.989966	0.754586	0	0
0.01	0.336787	1.33234	-1.77158	0.493101	1.97076	0.925583	-0.145431	-0.130452	-0.438466	0.347225	-0.106106	0	0	0.215257	0.220247	0.218932	1.39453	-0.0690527	0	0	-0.23175	0.0597003	0.228864	-0.336062	-0.571222	-0.273044	1.65003	0.805104	0	0	0.502056	-0.390598	0.629396	0.97705	0.760926	0	0
0.02	0.346951	1.33156	-1.7851	0.491845	1.96127	0.925751	-0.159939	-0.12963	-0.441344	0.340411	-0.101287	0	0	0.235935	0.220971	0.198772	1.36905	-0.0601967	0	0	-0.232449	0.0549476	0.233513	-0.335045	-0.570706	-0.27291	1.64982	0.804224	0	0	0.510101	-0.398413	0.650251	0.980318	0.737948	0	0
0.03	0.361285	1.33248	-1.80312	0.490705	1.95159	0.925872	-0.170871	-0.130371	-0.444797	0.337455	-0.0986573	0	0	0.256139	0.220903	0.178267	1.3373	-0.0542053	0	0	-0.230099	0.0519095	0.242551	-0.340505	-0.569471	-0.278181	1.65239	0.803239	0	0	0.495467	-0.369541	0.593352	0.966914	0.759633	0	0
0.04	0.374189	1.33217	-1.81947	0.489648	1.94194	0.925938	-0.182483	-0.131276	-0.448133	0.336241	-0.0950496	0	0	0.272732	0.220749	0.160142	1.30077	-0.0497331	0	0	-0.230472	0.047607	0.24751	-0.340412	-0.568385	-0.279104	1.65333	0.803434	0	0	0.491073	-0.364334	0.575787	0.966489	0.778678	0	0
0.05	0.387332	1.32796	-1.83517	0.488585	1.93245	0.925983	-0.196293	-0.134694	-0.455543	0.342352	-0.0738556	0	0	0.282881	0.221301	0.143343	1.25801	-0.0504254	0	0	-0.236556	0.0396761	0.247586	-0.33384	-0.565813	-0.276528	1.65238	0.807254	0	0	0.517008	-0.405411	0.660325	0.985716	0.731429	0	0
0.06	0.401819	1.3284	-1.85057	0.487971	1.92287	0.925549	-0.202178	-0.13938	-0.466625	0.357096	-0.0636734	0	0	0.295306	0.223073	0.134402	1.21159	-0.0506826	0	0	-0.235937	0.0354976	0.249758	-0.333268	-0.564799	-0.277125	1.65333	0.808146	0	0	0.517837	-0.405977	0.659736	0.986884	0.730398	0	0
0.07	0.442947	1.31184	-1.89589	0.486926	1.91366	0.927344	-0.225044	-0.157223	-0.478274	0.366216	-0.0654059	0	0	0.299928	0.2502	0.177955	1.18403	-0.0784461	0	0	-0.252925	0.0174418	0.252485	-0.326707	-0.562977	-0.274479	1.65146	0.807301	0	0	0.521643	-0.407313	0.658082	0.987233	0.731408	0	0
0.08	0.453386	1.31253	-1.90661	0.486477	1.90395	0.926606	-0.231409	-0.161105	-0.489881	0.380481	-0.0527055	0	0	0.312908	0.243165	0.139768	1.12516	-0.0747451	0	0	-0.251777	0.0145054	0.253949	-0.325459	-0.561477	-0.274667	1.65165	0.808693	0	0	0.523465	-0.409484	0.660953	0.988349	0.733422	0	0
0.09	0.442653	1.33858	-1.88748	0.487391	1.8942	0.922671	-0.212431	-0.149471	-0.500432	0.399713	-0.0365906	0	0	0.326279	0.231496	0.139617	1.04729	-0.0524973	0	0	-0.223457	0.0303067	0.252899	-0.334147	-0.561759	-0.280604	1.6552	0.808705	0	0	0.507885	-0.385657	0.61612	0.97697	0.758181	0	0
0.1	0.468215	1.34645	-1.90989	0.487593	1.8845	0.921059	-0.208819	-0.155524	-0.514099	0.421529	-0.00330117	0	0	0.336233	0.236558	0.149368	0.983426	-0.0514942	0	0	-0.213063	0.0275917	0.251322	-0.33344	-0.559013	-0.280739	1.65361	0.813536	0	0	0.500639	-0.3779	0.594003	0.974026	0.777588	0	0
0.11	0.478995	1.35248	-1.91737	0.487759	1.87483	0.91956	-0.212932	-0.154377	-0.521098	0.42715	0.00106736	0	0	0.340232	0.237277	0.157013	0.917587	-0.0476188	0	0	-0.206881	0.0269278	0.247769	-0.330352	-0.558664	-0.277907	1.65219	0.813948	0	0	0.506347	-0.390424	0.615742	0.979666	0.770351	0	0
0.12	0.491333	1.35981	-1.92586	0.488033	1.86503	0.917983	-0.217235	-0.15174	-0.526435	0.428388	0.00532507	0	0	0.34182	0.236542	0.163099	0.845779	-0.0428302	0	0	-0.198021	0.0277669	0.247009	-0.331284	-0.556144	-0.279463	1.65149	0.81553	0	0	0.4993	-0.377743	0.590742	0.973206	0.778074	0	0
0.13	0.502708	1.36551	-1.93345	0.488333	1.85519	0.916452	-0.223066	-0.149499	-0.532288	0.430642	0.0125832	0	0	0.338599	0.233191	0.161616	0.767839	-0.0425291	0	0	-0.191615	0.0274797	0.243681	-0.328841	-0.553716	-0.278212	1.64981	0.81927	0	0	0.500151	-0.381933	0.59558	0.974473	0.78393	0	0
0.14	0.513145	1.37193	-1.94034	0.488708	1.84517	0.914856	-0.227917	-0.146905	-0.538064	0.433895	0.018522	0	0	0.333649	0.227109	0.152371	0.685875	-0.0445997	0	0	-0.183158	0.0291033	0.245081	-0.332625	-0.549835	-0.283001	1.65008	0.822309	0	0	0.485658	-0.355132	0.541355	0.96281	0.811747	0	0
0.15	0.508038	1.3721	-1.93275	0.488849	1.8351	0.913496	-0.240641	-0.143638	-0.5447	0.436835	0.0287663	0	0	0.32023	0.218379	0.130877	0.601953	-0.0591362	0	0	-0.184659	0.0277393	0.239603	-0.325647	-0.546517	-0.279437	1.64755	0.829415	0	0	0.514941	-0.403658	0.643599	0.98151	0.759404	0	0
0.16	0.502081	1.37766	-1.92428	0.489299	1.82467	0.911744	-0.247063	-0.139128	-0.550235	0.442366	0.0328234	0	0	0.311737	0.208591	0.107714	0.522896	-0.0646979	0	0	-0.177774	0.0315373	0.240133	-0.328282	-0.544047	-0.282064	1.64776	0.830829	0	0	0.50985	-0.394329	0.626854	0.975406	0.765419	0	0
0.17	0.495604	1.37926	-1.91656	0.489683	1.81416	0.910299	-0.256754	-0.13719	-0.555952	0.45027	0.0387693	0	0	0.296884	0.198551	0.0727167	0.441387	-0.0842672	0	0	-0.175586	0.0329238	0.239635	-0.327834	-0.541528	-0.282581	1.64723	0.833165	0	0	0.511315	-0.396972	0.632288	0.975274	0.76486	0	0
0.18	0.493241	1.38186	-1.91256	0.490297	1.80346	0.908646	-0.264078	-0.136847	-0.561927	0.461375	0.0439516	0	0	0.283071	0.191196	0.0399449	0.366088	-0.106746	0	0	-0.171112	0.0343762	0.239389	-0.328791	-0.538966	-0.283693	1.64685	0.835817	0	0	0.511544	-0.396263	0.633664	0.972415	0.766007	0	0
0.19	0.491416	1.38501	-1.9093	0.490997	1.79268	0.90693	-0.269582	-0.136858	-0.565725	0.474425	0.0479639	0	0	0.269157	0.185658	0.0117443	0.29466	-0.131697	0	0	-0.165332	0.0362804	0.240835	-0.331494	-0.53552	-0.286924	1.64655	0.838282	0	0	0.505252	-0.383591	0.610849	0.963658	0.783574	0	0
